<svg width="141" height="36" viewBox="0 0 141 36" fill="none" xmlns="http://www.w3.org/2000/svg">
<path d="M41.0472 0.318644C32.8444 0.37637 26.1348 9.35013 26.1348 17.1773C26.1348 25.4141 31.0532 35.4617 41.0472 35.4291C51.0411 35.3965 56.2283 24.5794 56.2283 17.1773C56.2283 9.00113 49.25 0.260919 41.0472 0.318644ZM41.0472 0.625652C47.9126 0.625652 49.7647 8.08904 49.7647 17.1773C49.7647 29.1691 47.5305 35.0853 41.0472 35.074C34.5638 35.0627 32.4546 30.2206 32.4546 17.1773C32.4546 9.00673 34.1818 0.625652 41.0472 0.625652Z" fill="white"/>
<path d="M58.9357 17.3978C58.8989 8.49185 66.1405 0.602852 72.2706 0.211443C74.4849 0.0570331 77.3312 1.05511 78.9929 1.7661C80.1995 2.28239 82.6627 1.53508 83.1001 0.164062H83.3386V12.2957H83.1001C83.1001 11.7785 80.8175 0.516452 72.2706 0.516452C65.9576 0.516452 65.3478 11.4427 65.3478 17.3978C65.3478 23.3529 65.5317 35.142 72.8987 35.142C76.4675 35.142 79.1091 33.6051 79.7939 30.496V21.0423H76.7983V20.6396H88.4096V21.0423H85.5457V34.8635H85.3125C85.3125 34.8635 84.8469 32.8693 82.4844 32.876C79.4648 32.8845 76.6171 35.4667 73.1457 35.4353C63.9653 35.3521 58.9725 26.3038 58.9357 17.3978Z" fill="white"/>
<path d="M3.61538 1.51428H0V1.11426H12.6649V1.51428H9.48755L18.5369 25.7037C21.3667 17.1285 23.5589 10.7897 26.5089 1.51428H23.3662V1.11426H30.0533V1.51428H27.0081L16.0095 35.2632L3.61538 1.51428Z" fill="white"/>
<path d="M90.186 26.999L90.1288 1.47414H86.6875V1.0918H99.3659V1.47414H95.9266L96.003 29.4608C96.7644 32.6655 98.118 35.0971 102.743 35.1333C107.367 35.1695 110.511 32.4405 111.68 28.711V1.47414H107.743L107.743 1.10306H139.964L140.031 13.356H139.722C139.124 5.44474 136.023 2.45485 130.599 1.58259C128.733 1.28244 126.775 1.50494 124.299 1.486V17.124C126.455 17.2879 128.751 17.1538 130.298 15.8458C131.705 14.6563 132.103 11.9081 132.206 10.7916H132.479V24.4075H132.184C132.099 24.4075 131.985 20.9906 130.298 19.3695C128.6 17.7379 126.437 17.3367 124.299 17.7254V34.4302C127.318 34.4302 129.725 34.6819 131.815 34.118C138.168 32.4036 140.404 27.1281 140.387 21.837H140.74V34.8257H115.467V34.4302H118.325V1.47414H112.15V28.711C111.451 31.317 108.893 35.6284 102.338 35.599C96.2437 35.5716 90.1992 32.8672 90.186 26.999Z" fill="white"/>
</svg>
