<svg width="277" height="36" viewBox="0 0 277 36" fill="none" xmlns="http://www.w3.org/2000/svg">
<path d="M29.8855 28.5056H18.5968L11.683 17.222L9.43665 19.5226V28.5056H0V0.117188H9.43665V9.27961L17.528 0.117188H28.5957L18.2186 10.7054L29.8855 28.5056ZM42.5206 17.9739C42.5206 16.6759 42.2111 15.4989 41.5915 14.4564C40.9721 13.4139 40.016 12.8892 38.7098 12.8892C37.5449 12.8892 36.663 13.4139 36.0705 14.4631C35.4779 15.5189 35.1817 16.6894 35.1817 17.9739C35.1817 19.3528 35.4981 20.6576 36.1312 21.8751C36.7573 23.0991 37.7267 23.7111 39.0262 23.7111C40.2787 23.7111 41.1741 23.1191 41.7128 21.9288C42.2515 20.7384 42.5206 19.4201 42.5206 17.9739ZM49.0656 24.37C46.8358 27.6246 43.0139 29.1475 39.0611 29.1475C34.9874 29.1475 31.0611 27.6374 28.7843 24.2534C26.696 21.1491 26.4288 16.0873 28.188 12.775C29.5414 10.2259 32.022 8.38334 34.8661 7.6347C37.9989 6.77884 41.3896 6.96384 44.3972 8.18503C47.2098 9.3226 49.3022 11.6631 50.2132 14.4454C51.208 17.4832 50.853 21.7606 49.0656 24.37ZM122.195 15.8915C121.9 14.5395 121.414 13.6024 120.745 13.0801C120.069 12.5501 119.216 12.2889 118.172 12.2889C117.162 12.2889 116.361 12.5426 115.77 13.0569C115.18 13.5641 114.733 14.5089 114.425 15.8915H122.195ZM130.268 19.9008H114.506C114.506 20.5399 114.618 21.1007 114.841 21.5894C115.519 23.0757 116.746 24.0789 118.503 24.0789C119.793 24.0789 121.281 23.5676 121.559 22.1883H129.631C129.325 24.1455 128.056 25.8724 126.422 27.0072C124.774 28.1485 122.75 28.7843 120.751 29.0088C118.188 29.3188 115.223 29.2344 112.85 28.259C110.088 27.1294 108.026 25.0409 106.904 22.3457C105.872 19.7188 105.858 16.8051 106.858 14.1571C107.895 11.4102 110.029 9.28569 112.797 8.1591C116.163 6.79496 120.876 6.88746 124.131 8.48495C127.019 9.89722 128.989 12.3048 129.808 15.3435C130.212 16.8721 130.366 18.3367 130.268 19.9008H130.268ZM152.878 24.4095C151.327 27.3193 148.463 29.1368 145.01 29.1368C142.531 29.1368 140.9 28.3435 139.224 26.6507V35.5522H130.815V7.89024H138.261V10.9745C139.876 7.80685 143.873 6.65597 147.098 7.45507C150.612 8.31771 152.978 11.2256 153.821 14.494C154.608 17.5318 154.335 21.6957 152.878 24.4095ZM146.028 17.6836C146.028 16.8093 145.734 15.8548 145.137 14.8268C144.541 13.799 143.677 13.2852 142.552 13.2852C141.433 13.2852 140.569 13.7656 139.967 14.7334C139.364 15.6946 139.062 16.6757 139.062 17.6836C139.062 18.9186 139.297 20.0732 139.766 21.1411C140.241 22.2091 141.166 22.7431 142.552 22.7431C143.905 22.7431 144.816 22.189 145.305 21.0811C145.748 20.0117 146.028 18.8424 146.028 17.6836ZM172.343 28.2683C169.075 29.3947 164.634 29.5675 161.381 28.2352C159.333 27.3963 157.517 25.9808 156.37 24.0986C155.25 22.2908 154.667 20.2082 154.667 18.0882C154.667 16.6761 154.969 15.2886 155.476 13.9712C156.651 11.0089 158.684 9.30905 161.618 8.13154C164.976 6.78375 169.964 6.8328 173.152 8.54055C176.19 10.1682 177.781 12.4097 178.199 15.7131H169.594C169.443 14.6969 169.152 14.0688 168.726 13.533C167.521 12.0142 164.793 12.7563 163.923 14.255C162.812 16.1674 162.628 18.9921 163.331 21.0883C163.794 22.47 165.319 23.6414 166.8 23.6414C168.9 23.6414 169.335 22.2497 169.884 20.5198H178.199C178.112 23.9787 176.011 27.0037 172.343 28.2683ZM193.537 20.3993C193.537 20.0155 193.502 19.7004 193.432 19.4605C192.855 19.7756 191.954 20.0498 190.73 20.2827C189.797 20.4504 188.805 20.6555 187.971 21.1052C186.789 21.6805 186.853 23.3303 187.887 23.9967C189.083 24.705 191.089 24.6466 192.095 23.6543C193.052 22.7564 193.537 21.6739 193.537 20.3993H193.537ZM202.893 28.5056H194.285L193.958 26.3221C193.33 27.1202 191.929 27.7778 190.513 28.3143C189.823 28.576 189.113 28.7829 188.387 28.9147C187.662 29.0401 186.89 29.1062 186.086 29.1062C184.634 29.1062 183.306 28.8556 182.103 28.354C180.899 27.8525 179.99 27.0674 179.363 26.0119C178.8 24.8507 178.519 23.6762 178.519 22.4756C178.519 20.958 179.237 19.7067 180.224 18.585C180.787 17.9452 181.338 17.5857 182.332 17.2099C182.802 17.0319 183.268 16.8772 183.725 16.7481C184.177 16.6201 184.605 16.4981 185.013 16.4379L188.538 15.9167C190.034 15.6955 191.481 15.5047 192.121 15.2966C192.514 15.1683 192.978 14.7497 193.207 14.4858C193.436 14.2221 193.402 13.9448 193.402 13.6612C193.402 13.2718 193.213 12.9486 192.827 12.6848C192.441 12.4209 191.892 12.2889 191.179 12.2889C190.322 12.2889 189.257 12.4143 188.741 12.665C188.224 12.9156 187.89 13.4171 187.733 14.1625H179.761C180.029 12.81 179.98 12.0205 180.37 11.1946C180.758 10.3712 181.37 9.6641 182.207 9.07686C183.044 8.48986 184.194 8.03343 185.667 7.73094C186.378 7.58494 187.224 7.4831 188.185 7.40765C189.153 7.3315 190.225 7.28899 191.415 7.28899C194.312 7.28899 196.482 7.62816 197.929 8.30486C199.373 8.98062 200.315 9.52511 200.754 10.5405C201.191 11.5505 201.487 12.8628 201.624 14.4727V25.3718C201.624 26.4935 202.049 27.3249 202.893 27.8658V28.5056V28.5056ZM226.282 28.5056H217.979V20.8008H211.829V28.5056H203.606L203.598 8.21166L203.606 7.90145H211.829V14.8053H217.886V7.90145H226.282L226.274 28.1363L226.282 28.5056ZM249.353 13.974H242.204V28.5056H233.875V13.974H226.665V7.90145H249.353V13.974ZM276.323 21.9122C276.323 23.722 275.446 25.3121 274.039 26.4461C272.188 27.9532 269.628 28.5056 267.278 28.5056H254.425V13.974H249.624V7.90145H262.439V15.1331H266.822C269.262 15.1331 271.968 15.6028 273.902 17.1804C275.357 18.3664 276.323 20.0251 276.323 21.9122ZM268.045 21.9332C268.045 20.6314 267.313 20.0853 266.055 19.937C265.799 19.937 265.294 19.916 264.545 19.8844C263.797 19.8515 262.794 19.8384 262.439 19.8384V23.8178L264.52 23.8573C265.088 23.869 265.556 23.8455 265.918 23.8178C267.196 23.7243 268.045 23.3824 268.045 21.9332V21.9332ZM66.8736 28.5054H62.8379L58.4282 14.7413L59.1093 20.1362V28.5054H51.7455V7.78256H61.1895L64.8558 19.2295L68.522 7.78256H77.9662V28.5054H70.6022V20.1362L71.2833 14.7413L66.8736 28.5054ZM94.45 28.5054H90.4143L86.0046 14.7413L86.6857 20.1362V28.5054H79.3217V7.78256H88.766L92.4322 19.2295L96.0984 7.78256H105.542V28.5054H98.1787V20.1362L98.8597 14.7413L94.45 28.5054Z" fill="white"/>
</svg>
