<svg width="134" height="36" viewBox="0 0 134 36" fill="none" xmlns="http://www.w3.org/2000/svg">
<path d="M131.481 35.0125L124.876 12.8577C126.9 12.2247 128.919 11.0305 129.964 9.41216C131.199 7.50047 131.397 4.64778 129.203 2.84796C127.162 1.17263 123.671 1.24226 122.118 1.24226H114.174V1.82673H115.711V35.0125H114.194V35.5991H122.135V35.0125H120.618V1.82673H122.118C126.644 1.84361 128.185 7.40974 125.958 10.4059C124.103 12.9021 120.694 13.4317 120.694 13.4317L126.625 35.0125H125.027V35.5991H133.045V35.0125H131.481ZM102.352 1.23594H91.6366V1.8225H93.1559V35.0104H91.6366V35.5991H103.489V28.3914H102.885V35.0104H98.0679V14.1723H100.813V18.3353H101.417V9.43115H100.813V13.5836H98.0679V1.8225H102.885V8.44151H103.489V1.23594H102.352ZM69.3092 1.23594V1.8225H70.8217V35.0104H69.3071V35.5991H81.1598V28.3914H80.5574V35.0104H75.734V1.8225H77.2508V1.23594H69.3092ZM44.5464 1.23594V8.44151H45.1487V1.84572H48.5572V35.0104H47.0425V35.5991H54.9841V35.0104H53.4694V1.84572H56.8801V8.44151H57.4825V1.23594H44.5464ZM26.31 13.9486L27.7965 22.6607H24.7282L26.31 13.9486ZM21.8961 35.0104H20.3685V35.5991H24.089V35.0125H22.4985L24.6112 23.2515H27.8961L29.9027 35.0104H28.2559V35.5991H36.1975V35.0104H34.8085L28.4249 0.164062H28.1345L21.8961 35.0104ZM0 1.23594V8.44151H0.602388V1.84572H4.01303V35.0104H2.49623V35.5991H10.4378V35.0104H8.92313V1.84572H12.3337V8.44151H12.9362V1.23594H0Z" fill="white"/>
</svg>
