<svg width="246" height="36" viewBox="0 0 246 36" fill="none" xmlns="http://www.w3.org/2000/svg">
<path d="M226.949 21.1582C226.949 18.5826 235.974 17.7204 235.974 17.7204L235.847 15.1442C234.531 15.1087 229.393 15.2945 229.393 13.9413C229.393 12.1747 237.254 11.7441 240.009 11.6484L239.444 7.52637C234.696 7.53933 213.362 7.59551 212.489 13.2786C212.017 16.3468 218.16 17.0716 218.16 17.0716L218.158 17.2161C218.158 17.2161 210.115 18.6795 210.115 22.5114C210.115 30.3296 237.857 28.1405 245.038 26.1949C245.038 26.1949 244.343 22.7226 244.026 22.5614C243.74 22.4157 237.916 23.2631 233.295 23.1414C229.537 23.042 226.949 22.4519 226.949 21.1582Z" fill="white"/>
<path d="M169.145 3.96157C169.145 6.17979 166.673 7.74854 162.347 7.74854C158.097 7.74854 155.545 6.21375 155.545 3.96157C155.545 1.44855 159.286 0.117188 162.344 0.117188C165.314 0.117188 169.145 1.41521 169.145 3.96157Z" fill="white"/>
<path d="M208.43 22.3922C208.086 22.2795 205.584 22.8333 202.784 21.8782C198.304 20.3496 197.616 14.4355 202.936 11.0569L197.958 6.9082C189.176 10.2392 187.369 10.4766 186.547 10.6615C186.139 9.48634 184.234 7.5123 180.191 7.74937C177.993 7.8784 174.725 9.09308 173.78 11.3057C173.143 12.7967 173.529 14.4707 175.005 15.6147C177.134 17.2637 181.197 16.8528 181.197 16.8528C179.918 22.1282 168.777 25.7368 168.777 20.0826V10.3812H155.545V21.6482C155.545 27.2768 162.562 28.7328 169.453 28.2853C179.094 27.6589 184.517 22.2128 186.493 16.3339L191.197 15.2652C191.197 15.2652 184.76 23.5232 192.792 27.2786C197.375 29.4212 205.801 27.7698 209.188 25.9933C209.188 25.9933 208.626 22.4564 208.43 22.3922ZM178.203 12.2077C178.29 10.8001 181.845 10.4389 182.061 12.0676C182.061 12.0676 178.109 13.7277 178.203 12.2077Z" fill="white"/>
<path d="M154.093 23.3489C153.972 23.2236 151.7 23.7811 150.053 23.3853C148.236 22.9482 148.118 21.6095 148.118 19.829L148.119 10.3037C148.119 10.3037 134.493 10.3065 134.492 10.3065V19.2959C134.492 20.3559 134.582 22.9368 130.759 22.9368C129.041 22.9368 127.079 22.7945 127.079 20.3559V10.3037H113.529L113.541 21.7567C113.541 28.2863 124.668 30.2831 136.101 26.0202C136.101 26.0202 141.453 30.1837 154.834 27.1222C154.834 27.1222 154.25 23.5113 154.093 23.3489Z" fill="white"/>
<path d="M109.597 33.6187L109.592 10.1332L97.1921 10.1351C97.1921 10.1351 97.612 18.6071 96.96 20.2533C95.8514 23.8327 86.9164 23.3243 86.9186 19.1513C86.9217 14.3004 96.0179 15.1345 96.0179 15.1345L95.1072 10.1246C95.1072 10.1246 74.0764 8.19814 73.0691 19.263C72.8436 26.9754 86.8016 30.1902 97.1237 26.3941L97.119 35.5532L109.597 33.6187Z" fill="white"/>
<path d="M69.235 22.3503C70.4823 21.1032 70.4073 19.5863 69.3489 17.9339C67.7865 15.4947 63.4713 14.0664 62.4401 12.1303C61.9873 11.2796 62.0045 10.2693 62.6775 9.02527L62.4451 8.00352L47.8841 9.58677C47.022 11.4982 47.9013 12.9891 47.9647 13.1644C37.4463 24.2515 20.3886 24.3518 19.9345 20.4442C19.5086 16.7795 31.171 15.9698 31.171 15.9698L30.9427 12.3168C30.9427 12.3168 23.0872 12.9249 22.9693 10.5449C22.8476 8.09088 30.196 7.29755 34.4567 7.24909L33.3691 1.35782C19.5739 1.20934 6.67898 4.20112 5.49417 9.33087C5.13854 10.8697 6.18254 13.5762 11.8729 14.7054V14.902C11.8729 14.902 -0.0808121 16.7594 0.000412063 21.8651C0.0725416 26.4068 10.3833 28.424 17.6643 28.4743C32.4176 28.5756 40.1954 23.7629 40.1954 23.7629C38.1337 29.3146 54.2873 29.985 65.5019 26.0005C66.0356 25.811 70.3452 27.6171 72.9622 28.7559C72.9622 28.7559 74.6363 24.809 74.4124 24.2716C74.2085 23.7829 69.235 22.3503 69.235 22.3503ZM54.8223 23.8265C53.3703 25.5872 47.6846 25.5702 48.0835 24.4176C48.5125 23.1776 54.1531 23.4881 54.8223 23.8265ZM43.8809 21.941C43.8809 21.941 47.2989 19.8111 50.8119 16.7788C50.8119 16.7788 53.8379 18.5189 55.2228 20.5877C55.2228 20.5877 50.3983 19.6857 43.8809 21.941Z" fill="white"/>
</svg>
