<svg width="69" height="36" viewBox="0 0 69 36" fill="none" xmlns="http://www.w3.org/2000/svg">
<path d="M36.2385 17.8524C36.2385 16.9206 36.2334 16.0031 36.0921 15.1935H18.9969V23.2875H24.0713C24.0713 24.0965 21.7258 25.7597 18.2067 25.7597C14.3353 25.7597 9.95225 22.7638 9.86467 17.9437C9.7732 12.95 14.1624 9.68398 18.2067 9.82619C21.4911 9.94167 22.7455 10.8687 24.5771 12.6433C24.5771 12.6433 35.235 12.6512 35.5142 12.6512C35.1965 11.449 34.4095 9.63245 33.063 7.75194C32.9505 7.59542 32.8358 7.43763 32.7146 7.2811C30.0219 3.75329 25.3435 0.171716 18.0742 0.164081C9.53305 0.15231 2.94088 5.77282 0.766975 12.6544C0.741118 12.7375 0.716231 12.8205 0.690698 12.9042C0.690698 12.908 0.689082 12.9137 0.687466 12.9169C0.241114 14.4567 0 16.0817 0 17.7599C0.0161605 19.3668 0.228186 20.905 0.613451 22.3563C1.98515 27.3771 5.55532 31.5208 10.2557 33.7433C10.2936 33.7608 10.3311 33.779 10.3698 33.7955C10.3941 33.8082 10.419 33.8175 10.4413 33.8286C12.8133 34.8905 15.4778 35.482 18.3069 35.5039C24.3056 35.4562 29.6114 32.5669 32.8804 28.1451C32.9473 28.0538 36.2385 23.3677 36.2385 17.8524V17.8524Z" fill="white"/>
<path d="M63.2436 28.0671C63.2436 28.0671 66.5753 23.8792 66.5879 18.303C66.6144 7.35205 58.8208 0.284482 47.9484 0.268575C41.6497 0.259031 35.8426 3.55645 32.8688 7.51271C30.2236 11.0325 29.7876 13.965 29.7876 16.0981C29.6622 18.7519 29.9272 20.0069 29.9272 20.0069C30.3112 22.7702 31.4011 25.4883 33.0743 27.859C36.2408 32.3469 41.4984 35.5991 48.0108 35.5991C52.3327 35.5998 55.39 33.6016 55.9423 33.3127L57.0878 34.6183H68.1583L63.2436 28.0671V28.0671ZM56.5044 20.3827L55.5593 19.2396H44.3285L48.8944 25.6188C44.1433 26.5353 39.6526 22.5615 39.7182 18.0097C39.7848 13.359 43.598 9.90473 48.1578 9.93495C53.1637 9.96613 58.1573 15.3078 56.5044 20.3827V20.3827Z" fill="white"/>
<g opacity="0.5">
<path opacity="0.5" d="M35.5112 12.6558C35.1935 11.4534 34.4065 9.63453 33.06 7.75486C33.0037 7.675 32.9427 7.59514 32.8848 7.51465C32.88 7.52101 32.8745 7.52737 32.8696 7.53374C31.4491 9.42296 30.6669 11.1401 30.2461 12.6545C32.8415 12.6551 35.3768 12.6558 35.5112 12.6558Z" fill="white"/>
<path opacity="0.5" d="M36.2344 17.8506C36.2344 16.9187 36.2292 16.0011 36.088 15.1914H29.818C29.7973 15.1914 29.7876 15.8175 29.7876 16.1115C29.6622 18.7659 29.9272 20.0125 29.9272 20.0125C30.3096 22.7741 31.3985 25.4877 33.0688 27.8564C33.7831 26.7524 36.2344 22.6106 36.2344 17.8506V17.8506Z" fill="white"/>
</g>
</svg>
