<svg width="138" height="36" viewBox="0 0 138 36" fill="none" xmlns="http://www.w3.org/2000/svg">
<path d="M34.1881 35.502C31.7894 35.1582 29.6914 34.1587 28.0893 32.5967C26.7529 31.2937 25.8865 29.8608 25.2478 27.8975C24.2506 24.8321 24.2503 20.8911 25.2469 17.8883C26.2127 14.9782 28.3875 12.4451 31.0491 11.13C34.735 9.30865 39.9228 9.42306 43.3366 11.4009C46.4088 13.181 48.2699 16.3438 48.7876 20.6651C48.9457 21.9845 48.8432 24.7713 48.5942 25.9217C47.5751 30.6301 44.6071 33.9191 40.2588 35.1588C39.7903 35.2924 39.0637 35.4487 38.6442 35.5061C37.7565 35.6276 35.0472 35.6251 34.1881 35.502ZM39.3796 35.1385C41.1349 34.7351 42.5342 34.1194 43.785 33.1998C46.8273 30.9633 48.4944 27.5339 48.6483 23.1952C48.8 18.9181 47.4896 15.2721 44.9556 12.9213C42.8987 11.013 40.3066 10.0983 36.956 10.0983C33.4041 10.0983 30.5437 11.1823 28.343 13.3623C25.9857 15.6975 24.7388 18.9551 24.7388 22.7786C24.7388 26.7449 25.8654 29.9468 28.0501 32.1901C29.2547 33.4269 30.4272 34.1686 32.1087 34.7574C32.7032 34.9656 33.1406 35.0656 34.7302 35.3564C34.8662 35.3813 35.7788 35.3859 36.7581 35.3667C38.0839 35.3406 38.7535 35.2823 39.3796 35.1385ZM35.6262 33.7546C34.0012 33.029 32.849 30.8236 32.2715 27.3337C31.9054 25.1213 31.8708 20.2016 32.2044 17.7909C32.6729 14.4056 33.6625 12.4056 35.2033 11.73C36.2595 11.2669 37.7231 11.5409 38.6643 12.3778C40.7544 14.2366 41.8094 19.5221 41.3542 25.8548C41.0276 30.399 40.0257 32.8637 38.1569 33.7202C37.4794 34.0307 36.281 34.047 35.6262 33.7546ZM37.7767 33.6112C38.4774 33.4064 39.3417 32.6086 39.8025 31.7412C40.7539 29.9505 41.1787 27.3025 41.1893 23.0979C41.2024 17.8283 40.3632 14.4751 38.5919 12.7194C37.848 11.9821 37.3206 11.7531 36.3695 11.7546C34.2588 11.758 32.9192 13.9269 32.3899 18.1979C32.1466 20.1611 32.1453 24.8381 32.3876 26.5547C33.1374 31.8667 35.0732 34.4015 37.7767 33.6112ZM76.674 35.5007C75.6926 35.4028 72.6936 34.9115 71.646 34.6771L70.9213 34.5149L70.9778 30.7052C71.1138 21.5329 71.131 16.5258 71.0429 11.6563C70.9566 6.8861 70.9315 6.38174 70.7446 5.67613C70.5078 4.78205 70.166 4.15839 69.7549 3.87027C69.5953 3.75834 69.1614 3.59972 68.7908 3.51778C67.559 3.24541 67.626 3.28908 67.5931 2.73595C67.5741 2.41733 67.6092 2.20684 67.692 2.14225C67.803 2.05566 77.9059 0.158746 78.2277 0.164074C78.3202 0.165604 78.3333 1.43717 78.2859 5.8138C78.2523 8.92006 78.2479 11.4615 78.2763 11.4615C78.3046 11.4615 78.6738 11.3042 79.0966 11.1119C80.3713 10.5322 81.5461 10.2807 83.2524 10.2221C84.3885 10.1831 84.9147 10.2076 85.4976 10.3263C89.3084 11.1024 92.1285 14.1727 93.1141 18.6186C93.3712 19.7784 93.4668 22.6607 93.2961 24.1045C93.1506 25.335 92.7355 26.993 92.3036 28.0689C90.6737 32.1289 87.1767 34.7776 82.5377 35.4659C81.4691 35.6245 78.1134 35.6444 76.674 35.5007ZM82.2632 35.2686C85.2682 34.825 87.4725 33.8092 89.3392 32.0077C92.0375 29.4036 93.3372 25.7285 93.1615 21.199C93.071 18.867 92.6841 17.3437 91.7022 15.4539C90.372 12.8937 88.0969 11.0979 85.5137 10.5691C83.576 10.1724 81.0828 10.4831 79.1872 11.3575C78.7148 11.5754 78.2626 11.7537 78.1823 11.7537C78.0549 11.7537 78.0411 11.0326 78.0735 6.07398L78.1107 0.394294L77.7139 0.472604C77.4956 0.515675 75.2692 0.924001 72.7665 1.38C70.2637 1.83599 68.1183 2.23161 67.999 2.25915C67.8177 2.301 67.7859 2.36904 67.8053 2.67391C67.827 3.01367 67.8553 3.04441 68.2201 3.12342C69.4742 3.39504 69.6974 3.49183 70.1637 3.96595C70.7349 4.54676 70.9929 5.28844 71.1622 6.83623C71.2971 8.0696 71.327 29.319 71.1983 32.4555L71.1219 34.3153L72.142 34.53C76.0048 35.3431 79.8551 35.6241 82.2632 35.2686ZM78.7342 33.7873C78.5343 33.7665 78.3204 33.6898 78.2589 33.6169C78.0893 33.4158 77.9057 20.1974 78.0187 16.3303L78.1084 13.263L78.8998 13.0384C80.0674 12.7071 81.3244 12.7586 82.2155 13.1743C84.0051 14.0091 85.1807 16.0712 85.7912 19.4463C85.9901 20.5457 85.9607 24.3641 85.743 25.7229C85.2882 28.5601 84.4607 30.7498 83.3087 32.1645C82.7502 32.8502 81.8228 33.4989 81.0976 33.7109C80.6298 33.8476 79.6271 33.8801 78.7342 33.7873ZM80.6387 33.5642C81.3574 33.43 81.9157 33.1485 82.5151 32.618C84.0174 31.2885 85.1469 28.5436 85.5912 25.1427C85.7721 23.7576 85.7478 20.6013 85.5472 19.4451C85.0048 16.3183 83.8391 14.2632 82.1387 13.4357C81.4333 13.0924 81.3245 13.0682 80.4879 13.0682C79.8895 13.0682 79.3748 13.1313 78.9371 13.2582L78.2819 13.4482L78.2336 17.0072C78.1716 21.5661 78.3222 32.9796 78.4487 33.307C78.5295 33.516 78.6183 33.5603 79.0188 33.5913C79.9616 33.6641 80.1175 33.6615 80.6387 33.5642ZM105.115 35.4525C100.207 34.5812 96.6972 31.1554 95.5503 26.1172C95.4028 25.4692 95.3376 24.7441 95.3006 23.3413C95.2421 21.1219 95.4255 19.7444 96.0073 18.0328C97.1245 14.7464 99.1268 12.4176 102.035 11.0218C105.105 9.54858 109.302 9.45209 112.019 10.7923C115.078 12.3012 116.878 15.3141 117.335 19.6897C117.396 20.2788 117.432 20.9799 117.414 21.2477L117.381 21.7346L110.061 21.7596L102.74 21.7845L102.768 22.6359C102.833 24.6081 103.264 26.3526 104.061 27.8692C104.423 28.5586 104.711 28.9344 105.411 29.6304C106.993 31.2027 108.567 31.8114 111.05 31.8114C112.85 31.8114 114.145 31.4578 115.499 30.5963C115.878 30.355 116.262 30.1575 116.353 30.1575C116.559 30.1575 117.035 30.7605 117.035 31.0224C117.035 31.4515 115.616 32.8352 114.231 33.7557C113.098 34.5096 111.299 35.1922 109.74 35.4607C108.648 35.6487 106.195 35.6444 105.115 35.4525ZM109.514 35.2654C111.806 34.8995 114.063 33.8166 115.686 32.3045C116.574 31.4762 116.869 31.0765 116.745 30.8671C116.416 30.3083 116.43 30.3089 115.588 30.8181C114.247 31.6287 113.575 31.8522 112 32.0113C110.16 32.1971 108.463 31.8945 106.895 31.1008C105.855 30.5743 104.608 29.3633 103.985 28.2741C103.135 26.7877 102.674 25.0514 102.536 22.82C102.478 21.8831 102.491 21.6497 102.603 21.58C102.679 21.5325 105.978 21.4935 109.987 21.4927L117.233 21.4912V21.2094C117.233 20.5689 117.019 18.8474 116.828 17.9449C116.058 14.3158 114.026 11.7281 111.128 10.6871C109.975 10.2727 108.884 10.0983 107.446 10.0983C104.039 10.0983 101.256 11.1984 99.1035 13.3964C97.3872 15.1488 96.369 17.1175 95.7475 19.8845C95.5602 20.7184 95.5288 21.1518 95.5288 22.9031C95.5288 24.6414 95.5608 25.0898 95.7424 25.8938C96.896 31.0012 100.309 34.3645 105.214 35.2261C106.456 35.4444 108.288 35.4612 109.514 35.2654ZM102.557 19.8588C102.483 19.7403 102.667 18.007 102.85 17.1093C103.29 14.9454 103.995 13.3828 104.966 12.4206C105.488 11.903 105.726 11.7416 106.151 11.6172C106.444 11.5316 106.776 11.4618 106.888 11.4621C107.342 11.4633 107.878 11.6913 108.277 12.053C109.347 13.0238 109.959 15.1086 110.08 18.1944L110.14 19.7177L109.111 19.7741C107.046 19.8874 102.611 19.9447 102.557 19.8588ZM108.221 19.5805L109.942 19.5215L109.88 18.3181C109.661 14.0746 108.606 11.7556 106.895 11.7574C105.036 11.7594 103.549 14.1128 102.932 18.0344C102.856 18.5164 102.793 19.0879 102.792 19.3046L102.79 19.6984L104.645 19.6689C105.665 19.6527 107.274 19.6129 108.221 19.5805ZM124.899 35.547C123.137 35.361 120.332 34.7565 119.398 34.3614L118.942 34.1684L118.88 31.9439C118.846 30.7204 118.806 29.0845 118.792 28.3086L118.767 26.8979L119.04 26.7689C119.19 26.6979 119.494 26.6317 119.714 26.6216L120.115 26.6033L120.457 27.431C121.79 30.66 123.353 32.401 125.395 32.9305C126.173 33.1325 127.634 33.1343 128.21 32.9339C129.825 32.3727 130.711 31.169 130.719 29.5246C130.728 27.5771 129.64 26.6414 125.532 25.0617C122.986 24.083 122.099 23.5793 121.041 22.5141C119.901 21.365 119.354 20.0571 119.251 18.2354C119.127 16.0341 119.827 14.1784 121.377 12.597C122.938 11.0056 124.964 10.1431 127.725 9.89515C130.155 9.67682 133.886 10.1843 135.841 10.999L136.198 11.1477L136.261 13.1304C136.296 14.2209 136.332 15.6827 136.342 16.3789L136.358 17.6447L135.879 17.8197C135.122 18.0965 135.072 18.0618 134.651 16.9632C133.471 13.8839 132.099 12.4268 129.961 11.9817C128.659 11.7105 127.57 12.0021 126.779 12.8344C126.162 13.4837 125.922 14.0604 125.863 15.0287C125.8 16.0778 125.991 16.6449 126.642 17.3463C127.444 18.2107 128.759 18.957 131.379 20.0345C134.587 21.3542 136.118 22.4746 136.951 24.1121C137.491 25.1756 137.644 26.025 137.59 27.66C137.549 28.8868 137.509 29.139 137.225 29.9628C136.301 32.6485 134.214 34.4166 130.99 35.2455C129.898 35.5263 129.742 35.5408 127.57 35.5642C126.319 35.5777 125.117 35.5699 124.899 35.547ZM129.598 35.2741C133.801 34.6458 136.515 32.4274 137.227 29.0377C137.57 27.4009 137.41 25.5808 136.815 24.3637C135.981 22.6597 134.572 21.6309 131.082 20.1785C128.49 19.0998 126.936 18.1853 126.3 17.3641C125.774 16.6856 125.603 16.164 125.61 15.2592C125.621 13.8944 126.146 12.8492 127.15 12.1974C127.99 11.6518 129.042 11.5187 130.268 11.8031C131.749 12.1468 132.863 13.0416 133.869 14.6959C134.189 15.2223 134.847 16.7001 135.167 17.6121C135.217 17.7536 135.274 17.7595 135.62 17.6591C135.837 17.5959 136.046 17.5141 136.083 17.4773C136.121 17.4405 136.118 16.0456 136.078 14.3774L136.004 11.3443L135.645 11.1947C135.04 10.9423 133.459 10.519 132.418 10.3304C131.634 10.1886 130.945 10.1518 129.104 10.1538C126.906 10.1562 126.727 10.1703 125.819 10.4127C123.182 11.1168 121.227 12.5815 120.206 14.6182C119.663 15.7006 119.475 16.535 119.482 17.8396C119.49 19.692 120.003 21.0594 121.137 22.2541C122.113 23.282 123.382 24.0154 125.542 24.8008C127.243 25.4189 128.998 26.2819 129.663 26.8269C130.054 27.1472 130.362 27.5121 130.591 27.9283C130.917 28.5203 130.933 28.5986 130.934 29.5246C130.934 30.4167 130.908 30.5531 130.62 31.1508C129.868 32.7127 128.364 33.4881 126.395 33.3296C123.718 33.1142 121.834 31.372 120.3 27.6943C119.9 26.735 119.873 26.7151 119.264 26.9428L118.985 27.0473L119.055 30.4769C119.117 33.5207 119.144 33.9206 119.291 34.0317C119.731 34.3637 122.578 35.0289 124.553 35.2612C126.087 35.4414 128.439 35.4475 129.598 35.2741ZM0.131488 34.9618C0.0492399 34.9291 0.00783281 34.6864 0.00783281 34.2371C0.00783281 33.4303 -0.0444096 33.4664 1.54116 33.1768C2.75724 32.9547 3.19232 32.7276 3.72933 32.0346C4.77054 30.6908 4.99559 28.1035 4.99792 17.4501C5.00011 7.44527 4.8043 5.34061 3.72746 3.79432C3.2497 3.10827 2.44457 2.73576 1.096 2.5768L0.0572948 2.45436L0.0286474 1.65615L0 0.857945L0.32542 0.800865C0.5044 0.769471 6.79279 0.756206 14.2996 0.771385L27.9484 0.798986L28.0124 1.18849C28.0476 1.40271 28.1054 3.60007 28.1408 6.0715L28.2052 10.565L27.5014 10.7754C26.4421 11.0921 26.4485 11.096 25.972 9.85486C24.8015 6.80626 23.4593 5.0496 21.6227 4.16256C20.3561 3.55077 19.7704 3.4768 16.1932 3.4768H13.08L13.0264 3.98802C12.9257 4.94668 12.7668 11.1135 12.7679 14.0176L12.769 16.9145L13.6841 16.9094C14.1874 16.9065 15.1798 16.8701 15.8894 16.8284C16.9562 16.7656 17.2732 16.7099 17.7195 16.5065C18.8161 16.0068 19.5621 14.907 20.0192 13.1163L20.2552 12.1919L21.0626 12.1636L21.87 12.1353V17.9857V23.836L21.0623 23.8078L20.2545 23.7795L20.0253 22.8544C19.5945 21.1163 18.7654 19.872 17.741 19.4259C17.2678 19.2199 16.0972 19.1028 13.8325 19.035L12.769 19.0032V21.2011C12.769 23.5962 12.9028 26.8363 13.0743 28.5948C13.3133 31.0462 13.9497 32.4008 15.0926 32.891C15.3109 32.9846 16.0014 33.1366 16.6271 33.2288C17.2528 33.3211 17.8426 33.4361 17.9378 33.4845C18.1793 33.6073 18.1935 34.8769 17.9545 34.9672C17.7674 35.0379 0.309699 35.0326 0.131488 34.9618ZM17.9131 34.1986C17.9131 33.904 17.8864 33.663 17.8537 33.663C17.3823 33.663 15.1859 33.1968 14.8328 33.0218C13.5767 32.3993 12.996 30.9195 12.7706 27.7667C12.6105 25.5255 12.4511 18.9413 12.5545 18.8395C12.6483 18.7471 16.8308 18.9112 17.3195 19.0264C18.671 19.3449 19.7128 20.6535 20.2344 22.688L20.4643 23.5847L21.0682 23.6137L21.6722 23.6427V17.9903V12.3379H21.0292C20.4281 12.3379 20.3862 12.3522 20.3862 12.5573C20.3862 12.9263 20.011 14.0938 19.6557 14.83C19.0994 15.9832 18.3159 16.6792 17.3195 16.9054C17.0747 16.9609 15.919 17.05 14.7512 17.1032C13.1043 17.1782 12.6101 17.1734 12.548 17.0816C12.4332 16.9119 12.6949 4.09138 12.8254 3.49566L12.8745 3.27109L16.5067 3.30091L20.1389 3.33074L20.9841 3.6287C22.9419 4.31885 24.3506 5.72818 25.5275 8.17411C25.792 8.72363 26.1309 9.52378 26.2807 9.95223C26.4305 10.3807 26.5631 10.7449 26.5753 10.7615C26.5875 10.7782 26.9124 10.6976 27.2974 10.5825L27.9972 10.3733L27.948 7.19282C27.9209 5.44357 27.8731 3.34412 27.8417 2.52739L27.7847 1.04242H13.9904H0.19624L0.225692 1.65059L0.255143 2.25875L1.14546 2.36836C2.33315 2.51459 2.76863 2.64195 3.24689 2.98298C3.97186 3.49992 4.41772 4.25934 4.69848 5.45542C5.13466 7.31366 5.29165 11.5044 5.21895 19.3489C5.14212 27.6377 5.03592 29.3616 4.49908 31.0339C4.05757 32.4093 3.23581 33.1384 1.87848 33.359C1.50491 33.4197 0.975704 33.5166 0.70247 33.5743L0.205681 33.6792V34.2067V34.7342H9.05938H17.9131V34.1986ZM48.8962 34.9434C48.8059 34.8868 48.7764 34.6622 48.7972 34.1899L48.8269 33.517L49.1731 33.4444C49.3635 33.4045 49.7725 33.3253 50.082 33.2683C51.0399 33.0922 51.5903 32.5804 51.9001 31.5781C52.1524 30.7615 52.2636 28.1491 52.2694 22.9031C52.2765 16.4871 52.1408 14.9719 51.4817 14.113C51.1245 13.6475 50.867 13.5151 50.0003 13.3514C49.5725 13.2706 49.1224 13.1839 49 13.1588C48.8017 13.1182 48.7774 13.0546 48.7774 12.5774C48.7774 12.1134 48.8072 12.0296 49 11.9515C49.296 11.8317 59.096 9.90354 59.409 9.90354H59.6532L59.6053 11.3398C59.579 12.1298 59.5369 13.28 59.5117 13.8959L59.4661 15.0157L59.8211 14.3855C60.9576 12.3681 62.2322 11.1157 63.927 10.3511C64.8574 9.93144 65.4782 9.80617 66.6276 9.80617C67.9908 9.80617 69.3536 10.244 69.3536 10.682C69.3536 10.9765 66.9519 17.2232 66.8194 17.2732C66.7548 17.2976 66.2858 17.1211 65.7772 16.8808C64.7166 16.3799 63.7215 16.1349 62.7556 16.137C61.5527 16.1396 60.2091 16.5757 59.6786 17.1357C59.4516 17.3753 59.4506 17.3897 59.3942 20.9673C59.3384 24.5103 59.4583 28.832 59.6607 30.5702C59.8332 32.0509 60.2329 32.7799 61.0584 33.1194C61.3338 33.2326 63.0763 33.4676 63.6449 33.4682C63.688 33.4682 63.7102 33.8079 63.6943 34.2229L63.6655 34.9776L56.3451 35.0008C52.3189 35.0136 48.9669 34.9877 48.8962 34.9434ZM63.5171 34.2069V33.6796L62.7504 33.6159C60.9821 33.4689 60.4977 33.2942 60.0333 32.6359C59.3604 31.682 59.2139 29.9217 59.2139 22.7892V17.2224L59.4591 16.9654C59.7685 16.6412 60.7358 16.1888 61.4198 16.0484C62.8087 15.7633 64.5842 16.0096 65.9729 16.68C66.3714 16.8724 66.7142 17.0133 66.7346 16.9932C66.7755 16.953 69.0563 11.0202 69.127 10.77C69.1592 10.6564 69.0278 10.5575 68.6441 10.4063C67.823 10.0829 67.1109 9.97201 66.1924 10.0245C63.7356 10.1648 61.5552 11.7715 59.9847 14.5987C59.724 15.0681 59.4539 15.4525 59.3846 15.453C59.2839 15.4537 59.2722 14.9145 59.3263 12.7703L59.394 10.0867L59.1556 10.1421C59.0244 10.1725 57.0474 10.5668 54.7623 11.0182C49.8613 11.9864 49.18 12.1274 49.0632 12.1985C49.0148 12.228 48.9752 12.402 48.9752 12.5852C48.9752 12.9529 48.9316 12.9316 50.0452 13.1079C51.576 13.3503 52.1168 14.085 52.3451 16.2329C52.6427 19.0335 52.5238 29.9509 52.1794 31.4414C52.0033 32.2035 51.5483 32.9375 51.0903 33.1983C50.9205 33.2949 50.3863 33.45 49.9032 33.5429L49.0247 33.7117L48.9948 34.2229L48.9649 34.7342H56.241H63.5171V34.2069Z" fill="white"/>
<path fill-rule="evenodd" clip-rule="evenodd" d="M39.3796 35.1385C41.1349 34.7351 42.5342 34.1194 43.785 33.1998C46.8273 30.9633 48.4944 27.5339 48.6483 23.1952C48.8 18.9181 47.4896 15.2721 44.9556 12.9213C42.8987 11.013 40.3066 10.0983 36.956 10.0983C33.4041 10.0983 30.5437 11.1823 28.343 13.3623C25.9857 15.6975 24.7388 18.9551 24.7388 22.7786C24.7388 26.7449 25.8654 29.9468 28.0501 32.1901C29.2547 33.4269 30.4272 34.1686 32.1087 34.7574C32.7032 34.9656 33.1406 35.0656 34.7302 35.3564C34.8662 35.3813 35.7788 35.3859 36.7581 35.3667C38.0839 35.3406 38.7535 35.2823 39.3796 35.1385ZM32.2715 27.3337C32.849 30.8236 34.0012 33.029 35.6262 33.7546C36.281 34.047 37.4794 34.0307 38.1569 33.7202C40.0257 32.8637 41.0276 30.399 41.3542 25.8548C41.8094 19.5221 40.7544 14.2366 38.6643 12.3778C37.7231 11.5409 36.2595 11.2669 35.2033 11.73C33.6625 12.4056 32.6729 14.4056 32.2044 17.7909C31.8708 20.2016 31.9054 25.1213 32.2715 27.3337Z" fill="white"/>
<path d="M63.5171 34.2069V33.6796L62.7504 33.6159C60.9821 33.4689 60.4977 33.2942 60.0333 32.6359C59.3604 31.682 59.2139 29.9217 59.2139 22.7892V17.2224L59.4591 16.9654C59.7685 16.6412 60.7358 16.1888 61.4198 16.0484C62.8087 15.7633 64.5842 16.0096 65.9729 16.68C66.3714 16.8724 66.7142 17.0133 66.7346 16.9932C66.7755 16.953 69.0563 11.0202 69.127 10.77C69.1592 10.6564 69.0278 10.5575 68.6441 10.4063C67.823 10.0829 67.1109 9.97201 66.1924 10.0245C63.7356 10.1648 61.5552 11.7715 59.9847 14.5987C59.724 15.0681 59.4539 15.4525 59.3846 15.453C59.2839 15.4537 59.2722 14.9145 59.3263 12.7703L59.394 10.0867L59.1556 10.1421C59.0244 10.1725 57.0474 10.5668 54.7623 11.0182C49.8613 11.9864 49.18 12.1274 49.0632 12.1985C49.0148 12.228 48.9752 12.402 48.9752 12.5852C48.9752 12.9529 48.9316 12.9316 50.0452 13.1079C51.576 13.3503 52.1168 14.085 52.3451 16.2329C52.6427 19.0335 52.5238 29.9509 52.1794 31.4414C52.0033 32.2035 51.5483 32.9375 51.0903 33.1983C50.9205 33.2949 50.3863 33.45 49.9032 33.5429L49.0247 33.7117L48.9948 34.2229L48.9649 34.7342H56.241H63.5171V34.2069Z" fill="white"/>
<path fill-rule="evenodd" clip-rule="evenodd" d="M82.2632 35.2686C85.2682 34.825 87.4725 33.8092 89.3392 32.0077C92.0375 29.4036 93.3372 25.7285 93.1615 21.199C93.071 18.867 92.6841 17.3437 91.7022 15.4539C90.372 12.8937 88.0969 11.0979 85.5137 10.5691C83.576 10.1724 81.0828 10.4831 79.1872 11.3575C78.7148 11.5754 78.2626 11.7537 78.1823 11.7537C78.0549 11.7537 78.0411 11.0326 78.0735 6.07398L78.1107 0.394294L77.7139 0.472604C77.4956 0.515675 75.2692 0.924001 72.7665 1.38C70.2637 1.83599 68.1183 2.23161 67.999 2.25915C67.8177 2.301 67.7859 2.36904 67.8053 2.67391C67.827 3.01367 67.8553 3.04441 68.2201 3.12342C69.4742 3.39504 69.6974 3.49183 70.1637 3.96595C70.7349 4.54676 70.9929 5.28844 71.1622 6.83623C71.2971 8.0696 71.327 29.319 71.1983 32.4555L71.1219 34.3153L72.142 34.53C76.0048 35.3431 79.8551 35.6241 82.2632 35.2686ZM78.2589 33.6169C78.3204 33.6898 78.5343 33.7665 78.7342 33.7873C79.6271 33.8801 80.6298 33.8476 81.0976 33.7109C81.8228 33.4989 82.7502 32.8502 83.3087 32.1645C84.4607 30.7498 85.2882 28.5601 85.743 25.7229C85.9607 24.3641 85.9901 20.5457 85.7912 19.4463C85.1807 16.0712 84.0051 14.0091 82.2155 13.1743C81.3244 12.7586 80.0674 12.7071 78.8998 13.0384L78.1084 13.263L78.0187 16.3303C77.9057 20.1974 78.0893 33.4158 78.2589 33.6169Z" fill="white"/>
<path fill-rule="evenodd" clip-rule="evenodd" d="M109.514 35.2654C111.806 34.8995 114.063 33.8166 115.686 32.3045C116.574 31.4762 116.869 31.0765 116.745 30.8671C116.416 30.3083 116.43 30.3089 115.588 30.8181C114.247 31.6287 113.575 31.8522 112 32.0113C110.16 32.1971 108.463 31.8945 106.895 31.1008C105.855 30.5743 104.608 29.3633 103.985 28.2741C103.135 26.7877 102.674 25.0514 102.536 22.82C102.478 21.8831 102.491 21.6497 102.603 21.58C102.679 21.5325 105.978 21.4935 109.987 21.4927L117.233 21.4912V21.2094C117.233 20.5689 117.019 18.8474 116.828 17.9449C116.058 14.3158 114.026 11.7281 111.128 10.6871C109.975 10.2727 108.884 10.0983 107.446 10.0983C104.039 10.0983 101.256 11.1984 99.1035 13.3964C97.3872 15.1488 96.369 17.1175 95.7475 19.8845C95.5602 20.7184 95.5288 21.1518 95.5288 22.9031C95.5288 24.6414 95.5608 25.0898 95.7424 25.8938C96.896 31.0012 100.309 34.3645 105.214 35.2261C106.456 35.4444 108.288 35.4612 109.514 35.2654ZM102.85 17.1093C102.667 18.007 102.483 19.7403 102.557 19.8588C102.611 19.9447 107.046 19.8874 109.111 19.7741L110.14 19.7177L110.08 18.1944C109.959 15.1086 109.347 13.0238 108.277 12.053C107.878 11.6913 107.342 11.4633 106.888 11.4621C106.776 11.4618 106.444 11.5316 106.151 11.6172C105.726 11.7416 105.488 11.903 104.966 12.4206C103.995 13.3828 103.29 14.9454 102.85 17.1093Z" fill="white"/>
<path d="M129.598 35.2741C133.801 34.6458 136.515 32.4274 137.227 29.0377C137.57 27.4009 137.41 25.5808 136.815 24.3637C135.981 22.6597 134.572 21.6309 131.082 20.1785C128.49 19.0998 126.936 18.1853 126.3 17.3641C125.774 16.6856 125.603 16.164 125.61 15.2592C125.621 13.8944 126.146 12.8492 127.15 12.1974C127.99 11.6518 129.042 11.5187 130.268 11.8031C131.749 12.1468 132.863 13.0416 133.869 14.6959C134.189 15.2223 134.847 16.7001 135.167 17.6121C135.217 17.7536 135.274 17.7595 135.62 17.6591C135.837 17.5959 136.046 17.5141 136.083 17.4773C136.121 17.4405 136.118 16.0456 136.078 14.3774L136.004 11.3443L135.645 11.1947C135.04 10.9423 133.459 10.519 132.418 10.3304C131.634 10.1886 130.945 10.1518 129.104 10.1538C126.906 10.1562 126.727 10.1703 125.819 10.4127C123.182 11.1168 121.227 12.5815 120.206 14.6182C119.663 15.7006 119.475 16.535 119.482 17.8396C119.49 19.692 120.003 21.0594 121.137 22.2541C122.113 23.282 123.382 24.0154 125.542 24.8008C127.243 25.4189 128.998 26.2819 129.663 26.8269C130.054 27.1472 130.362 27.5121 130.591 27.9283C130.917 28.5203 130.933 28.5986 130.934 29.5246C130.934 30.4167 130.908 30.5531 130.62 31.1508C129.868 32.7127 128.364 33.4881 126.395 33.3296C123.718 33.1142 121.834 31.372 120.3 27.6943C119.9 26.735 119.873 26.7151 119.264 26.9428L118.985 27.0473L119.055 30.4769C119.117 33.5207 119.144 33.9206 119.291 34.0317C119.731 34.3637 122.578 35.0289 124.553 35.2612C126.087 35.4414 128.439 35.4475 129.598 35.2741Z" fill="white"/>
<path d="M17.9131 34.1986C17.9131 33.904 17.8864 33.663 17.8537 33.663C17.3823 33.663 15.1859 33.1968 14.8328 33.0218C13.5767 32.3993 12.996 30.9195 12.7706 27.7667C12.6105 25.5255 12.4511 18.9413 12.5545 18.8395C12.6483 18.7471 16.8308 18.9112 17.3195 19.0264C18.671 19.3449 19.7128 20.6535 20.2344 22.688L20.4643 23.5847L21.0682 23.6137L21.6722 23.6427V17.9903V12.3379H21.0292C20.4281 12.3379 20.3862 12.3522 20.3862 12.5573C20.3862 12.9263 20.011 14.0938 19.6557 14.83C19.0994 15.9832 18.3159 16.6792 17.3195 16.9054C17.0747 16.9609 15.919 17.05 14.7512 17.1032C13.1043 17.1782 12.6101 17.1734 12.548 17.0816C12.4332 16.9119 12.6949 4.09138 12.8254 3.49566L12.8745 3.27109L16.5067 3.30091L20.1389 3.33074L20.9841 3.6287C22.9419 4.31885 24.3506 5.72818 25.5275 8.17411C25.792 8.72363 26.1309 9.52378 26.2807 9.95223C26.4305 10.3807 26.5631 10.7449 26.5753 10.7615C26.5875 10.7782 26.9124 10.6976 27.2974 10.5825L27.9972 10.3733L27.948 7.19282C27.9209 5.44357 27.8731 3.34412 27.8417 2.52739L27.7847 1.04242H13.9904H0.19624L0.225692 1.65059L0.255143 2.25875L1.14546 2.36836C2.33315 2.51459 2.76863 2.64195 3.24689 2.98298C3.97186 3.49992 4.41772 4.25934 4.69848 5.45542C5.13466 7.31366 5.29165 11.5044 5.21895 19.3489C5.14212 27.6377 5.03592 29.3616 4.49908 31.0339C4.05757 32.4093 3.23581 33.1384 1.87848 33.359C1.50491 33.4197 0.975704 33.5166 0.70247 33.5743L0.205681 33.6792V34.2067V34.7342H9.05938H17.9131V34.1986Z" fill="white"/>
</svg>
